<svg xmlns="http://www.w3.org/2000/svg" width="16" height="16.031" viewBox="0 0 16 16.031">
  <metadata><?xpacket begin="﻿" id="W5M0MpCehiHzreSzNTczkc9d"?>
<x:xmpmeta xmlns:x="adobe:ns:meta/" x:xmptk="Adobe XMP Core 5.6-c140 79.160451, 2017/05/06-01:08:21        ">
   <rdf:RDF xmlns:rdf="http://www.w3.org/1999/02/22-rdf-syntax-ns#">
      <rdf:Description rdf:about=""/>
   </rdf:RDF>
</x:xmpmeta>
                                                                                                    
                                                                                                    
                                                                                                    
                                                                                                    
                                                                                                    
                                                                                                    
                                                                                                    
                                                                                                    
                                                                                                    
                                                                                                    
                                                                                                    
                                                                                                    
                                                                                                    
                                                                                                    
                                                                                                    
                                                                                                    
                                                                                                    
                                                                                                    
                                                                                                    
                                                                                                    
                           
<?xpacket end="w"?></metadata>
<defs>
    <style>
      .cls-1 {
        fill: #efed2a;
        fill-rule: evenodd;
      }
    </style>
  </defs>
  <path id="形状_613" data-name="形状 613" class="cls-1" d="M450.571,204.568a4.571,4.571,0,0,0-9.142,0h9.142Zm2.858,4.568h-1.715v-2.627l1.452-1.45a0.574,0.574,0,0,0-.812-0.811l-1.143,1.142H440.926l-1.143-1.142a0.574,0.574,0,0,0-.812.811l1.315,1.45v2.627h-1.715a0.571,0.571,0,0,0,0,1.142h1.715v0.571a5.068,5.068,0,0,0,.685,2.513l-1.657,1.644a0.574,0.574,0,0,0,.812.811h0l1.531-1.519a5.12,5.12,0,0,0,3.772,1.69H445.5V206.1h1.143v9.89a5.116,5.116,0,0,0,3.714-1.69l1.532,1.531a0.573,0.573,0,1,0,.811-0.811l-1.611-1.611a5.043,5.043,0,0,0,.628-2.569v-0.56h1.715A0.571,0.571,0,1,0,453.429,209.136Z" transform="translate(-438 -200)"/>
</svg>
